<?xml version="1.0" encoding="UTF-8"?>
<svg id="Layer_1" xmlns="http://www.w3.org/2000/svg" version="1.1" viewBox="0 0 595.28 841.89">
  <!-- Generator: Adobe Illustrator 29.2.1, SVG Export Plug-In . SVG Version: 2.1.0 Build 116)  -->
  <path d="M176.13,47.81c1.17-6.05,9.59-15.3,15.74-16.42,4.52-.82,7.03.85,10.53,1.08,1.38.09,2.99-.7,4.69-.2.44.13,4.72,3.32,5.37,3.88,6.98,6.1,15.56,27.6,17.92,36.72,1.9,7.37,2.75,14.95,5.09,22.23,2.66,8.28,6.46,16.34,10.02,23.9,3.11,6.6,4.82,14.76,8.59,20.93.93,1.52,4.48,4.2,5.3,5.8.47.93.24,2.01.68,2.76.25.43,6.14,5.87,6.68,6.19,1.61.94,5,1.89,6.72,1.1.17-.08,2.72-2.26,2.83-2.41.32-.45.13-2.76.38-3.64.4-1.45,1.55-3.44,1.83-4.69.52-2.3-.07-6.17.29-8.61.28-1.96,1.52-4.25,1.73-6.64.41-4.67-.03-16.44-.9-21.09-1.17-6.23-1.85-10.43-2.62-16.8-1.1-9.09-3.22-16.25-3.93-25.57-.45-5.91-2.82-9.38-4.67-14.75-2.07-6.01-1.19-6.2-5.06-11.8-1.92-2.78-1.93-4.49-1.31-7.81.75-4.06,6.54,1.69,7.48,3.3-.12-4.8,3.32-8.86,8.13-9.21,3.15-.23,11.17,2.76,13.78,4.67,1.6,1.16,7.57,9.63,8.65,11.64,2.71,5.07,3.42,11.86,5.78,17.13.48,1.07,1.74,4.34,3.04,3.94.58-.18,4.61-9.09,5.62-10.69,9.69-15.21,21.19-23.25,38.68-28.28,4.91-1.41,10.3-2.27,15.62-2.44,5.87-.19,15.06,1.82,20.95,3.31,4.2,1.06,9.68,5.59,13.72,4.06,2.9-1.09,3.85-6.1,5.31-8.78,5.52-10.15,20.01-22.43,30.28-10.58,12.31,14.2,13.71,36.1,11.88,54.09-.13,1.27-.78,2.27-.89,3.52-.05.62-.37,1.76.66,1.54,1.81-2.73,3.72-5.43,5.44-8.22,5.93-9.56,11.5-17.13,18.11-25.94,1.7-2.26,4.19-6.99,5.53-8.57.48-.56,1.81-.68,2.65-1.32,1.35-1.03,3.3-3.89,4.81-4.88,3.58-2.34,19.58-7.63,23.78-7.94,2.76-.2,8.16.32,10.83,1.1,1.58.46,4.43,3.64,5.03,5.1.47,1.15.28,3.3.23,4.61-.21,5.49-1.49,12.9-4.65,17.38-1.35,1.92-3.18,3.15-4.59,4.79-6.92,8.07-13.72,15.28-20.92,23.01-8.47,9.09-16.48,19.75-23.12,30.19-.41.65-3.71,4.96-4.13,5.34-1.63,1.47-4.07,1.46-6.04,2.16-.19,1.1.52,3.21,1.09,4.19,1.47,2.54,7.32,8.91,9.7,11.44,1.36,1.45,3.93,2.92,5.32,4.37,2.15,2.24,3.98,5.85,6.15,7.95,1.93,1.87,4.51,2.8,6.59,4.42,6.11,4.78,11.41,16.49,15.72,23.05,2.86,4.35,7.23,8.45,9.4,13.07,1.89,4.03,3.87,8.71,6.4,12.22,1.78,2.47.82,8.39-.35,11.02-.35.78-2.23,2.6-2.98,3.19-8.3,6.62-24.09,1.97-32.07-3.59-14.45-10.06-26.01-26.19-37.29-39.8-.84-1.02-1.27-3.07-2.86-3.31-1.05-.16-.54.45-.68,1.08-1.35,6.16-1.3,12.11-2.31,17.98-.3,1.73-1.54,4.07-1.62,5.46-.07,1.16.53,2.13.41,3.42-.38,4.29-3.6,13.61-6.4,16.99-1.78,2.15-2.77,1.76-4.56,2.93-1.64,1.08-2.3,2.72-4.77,3.16-.76.14-7.02-.19-7.73-.35-.6-.13-4.31-3.52-5.17-4.16-.66-.49-1.56-.53-2.15-.94-3.52-2.41-6.14-10.5-8.23-14.31-1.74-.38-4.29,3.48-5.45,4.67-.73.75-5.32,4.18-4.41,5.05,2.77,1.07,3.29-1.84,4.41-2.39.84-.42,1.78-.18,2.66-.44,1.23-.37,1.98-1.87,3.81.31.21.25,3.19,5.42,3.31,5.73,2.05,5.39-2.43,8.3-7.14,6.05l.49,3.03c3.76.2,6.86-1.47,10.29-2.62.72,0,1.91,1.68,1.8,2.26-.6,3.11-10.64,6.34-13.26,7.9-1.02,1.65,1.7,7.46,1.91,9.6.19,1.97-3,1.74-4.31,1.19-.9-.38-2.53-2.8-2.66-3.87-.74-1.31-.93.74-1.58.96-.99.33-2.59-.1-3.69.06,1.01,2.05-.11,5.1-2.06,6.13-1.68.88-7.19-1.99-3.02,2.52,1.53-.35,3.09-.87,4.53-1.48.77-.33.58-1.24,2.59-1.4,2.74-.22,5.01.35,4.04,3.61-.36,1.19-8.55,6.43-10.48,6.04-1.09,1.16,3.57,4.22,1.66,6.06-1.78,1.71-4.51-.71-5.76-.29-.81.27-1.84,3.13-3.61,3.47-2.82.55-4.17-1.6-6.81-1.31l2.65,6.81c-.15,1.4-3.26,3.06-3.75,4.21-.4.91-.01,1.99-.32,2.55-.11.21-1.87.92-2.1,1.63l1.69.71c.15.16.09.4.1.6,0,.44-.35,3.15-.46,3.48-.13.37-2.16-.06-1.79,2.68.18,1.35,4.41,4.7,5.49,6,.94,1.13,1.72,2.98,3.01,4.07l.13,1.19c-.88,1.21-2.48,1.09-3.76.64-.26-.09-4.39-2.39-4.81-2.67-.86-.56-5.69-5.11-6.21-4.58.62,1.15.76,2.74,1.29,3.78,1.69,3.36,5.95,4.1,4.35,9.57-.04.13-1.25,2.3-1.34,2.4-.47.52-1.97.4-2.57,1.18-.56.73-.51,2.37-.83,3.31,3.8.89,6.27,5.62,5.02,9.24-.53,1.53-2.86,4.03-3.18,5.67-.28,1.4,1.57,2,.14,4.95-1.11,2.3-1.83,1.23-2.87,1.97-.98.7-.23,4.79.34,5.84.81,1.5,2.78,1.39,1.87,4.65-.05.19-2.79,2.09-3.12,2.27s-1.45.52-2.2.87c-1.62.75-2.3-.07-2.17,2.89,3.16-.65,4.47,1.72,4.36,4.59-.05,1.35-1.03,2.43-1.13,3.2-.15,1.1.84,3.34.45,4.44-.3.85-3.75,2.53-4.1,4.31-.63,3.2,1.11,3.45,1.32,4.86.06.4.45,4.87.44,5.24-.03,2.59-1.63,5.56-2.11,8.07s-1.76,9.03-1.89,11.36,2.37,3.85,1.28,6.98c-.3.87-1.87.65-2.36,1.6-1.81,3.46-.33,5.95-.27,9.08.08,4.38-.24,8.68.11,13.14.11,1.43.87,3.36.85,4.45-.05,2.28-2.55,3.54-4.17,1.94-5.03-4.97-3.84-14.67-4.21-21.35-.06-1.11-.71-1.97-.74-2.99-.05-2.33,1.43-5.44,1.59-7.64.36-5.14,1.45-10.14,2.23-15.36.96-6.48,2.47-12.38.31-18.82-.51-1.51-1.7-3.34-2.29-5.2-.18-.57.25-1.19,0-1.74-1.05-2.41-4.52-2.02-4.66-6.41-.16-4.72,2.54-3.4,3.77-5.07.4-.54.36-1.93.76-2.76.68-1.41,3.24-2.19,1.48-3.88-1.85-1.42-3.09.65-4.46.9-1.57.29-4.94-.23-5.51-1.96,0-1.02,3.5-3.28,4.47-3.93.62-.41,1.71-.47,2.17-.91,2.16-2.07-2.55-5.07-3.54-6.3-.92-1.13-3.55-6.06-3.57-7.37-.06-5.44,5.13-.26,6.66,1.32.96.99,2.75,5.13,4.6,2.85.92-1.14.92-6.53.65-8.11-.38-2.31-4.25-5.05-4.79-8.42-.74-4.59,2.82-6.46,1.29-10.77-1.02-.27-.73.24-1.01.56-1.74,2.03-3.29,5.08-6.46,4.53l-.89-1.33c1.79-1.51,1.68-13.29.82-13.83-2.32-.92-3.21,1.42-5.04,1.68-6.53.93-1.55-4.05.67-5.95.55-.47,3.5-2.72,4.02-3.03,1.19-.71,2.93-.6,3.92-1.79-1.08-1.79-3.18-2.46-3.75-4.62-1.02-3.83,3.25-4.46,5.96-5.08-3.03-2.08-9.12-3.44-10.35-7.27-.33-1.02-.1-2.32-.63-3.23-.23-.4-1.31-.79-1.81-1.38-2.08-2.45-2.78-5.39-.43-7.96-.93-.95-2.26-1.18-3.29-1.98-.75-.59-1.51-2.05-1.62-2.11-1.52-.89-2.04,2.71-2.82,3.84-.85,1.23-2.87,2.95-4.17,1.59-2.47-2.59,1.65-11.58.37-13.81-.17-.29-2.14-1.07-2.66-1.41-.37-.24-.44-.83-.8-1.06-1.03-.67-3.45-.52-3.3-2.49l1.96-1.12-.45-1.9c-5.34.11-11.28-3.94-9.54-9.88.84-2.86,10.82-5.69,13.68-7.46.55-.34.93-.41.76-1.22-4.12-.81-7.65-3.27-11.28-5.24-.95-.52-2.23-.57-2.91-.95-.75-.41-2.55-4.12-3.42-3.51-.69.98-1.51,3.54-2.24,4.15-1.84,1.56-6.83,4.89-9.07,6.35-7.86,5.12-17.39,10.14-27.01,8-.22,2.82,3.79,3.57,2.64,6.6l3.73-2.47c4.37.65,1.06,5.15.42,7.73-.38,1.54-.24,3.29-.89,4.89.13.22,3.99,1.65,4.46,1.72,2.79.45,12.55-.8,8.37,4.28-2.54-.91-5.07.14-7.51.19-2.05.04-3.8-1.53-5.52.63,0,.85,1.02,1.09,1.25,1.85.51,1.69-.35,3.42-.22,4.7.1,1.06,1.35,2,1.5,2.77.39,2.06.61,4.7,1.12,6.88.35,1.47.95,2.93,1.18,4.45l5.77,1.38c.72.77,1.56,4.75,2.23,5.71.5.72,1.44.59,1.93,1.15.41.47.33,1.56,1.11,1.98,1.89,1.02,3.23-1.92,5.07-2.05,2.59-.18,4.29,2.11,2.43,4.24-.24.27-3.29,2.89-3.56,3.04-.76.44-2.17.5-2.5.81-.47.44-1.63,3.85-.33,3.85h6.61c1.64,0,7.74,2.23,6.37,4.83-2.36.98-2.58-.35-3.84-.75-1.46-.47-6.6-.55-7.38.76-1.33,3.31,3.41,1.88,4.97,2.77.45.26,1.92,2.92,1.43,3.41-1.02-.67-3.87.91-3.98,1.63-.14.88.71,2.16.4,2.71s-5.01,3.23-6.1,3.17v.65c1.69,1.18,2.07,2.86,1.96,4.86-.09,1.68-1.7,3.95-1.56,4.8.06.38,1.49.57,2.04,1.12.58.58,2.22,2.67,3.01,3.59,2.27,2.64.7,6.08-1.07,8.55l2.29,3.69,5.83-.34c1.36,2.12,3.46,3.66,2.24,6.55l-4.61,4.41c3.31-.88,5.22-1.78,6.98,1.91-.08.47-.38.78-.65,1.15-1.19,1.64-7.32,7.13-9.01,8.15-.83.5-6.45,2.11-5.24,3.78,1.14-.69,2.42-.26,3.62-.56s3.69-1.91,4.79-1.87c3.51.14,2.1,2.06,2.3,3.56.23,1.73,8.16,1.36,9.66,1.62s2.93,1.18,1.68,2.8c-1.72,2.22-11.94,1.09-14.74.65-4.15,3.88,2.31,10.18,1.79,13.44-.07.45-1.24.42-1.52,1.81-.89,4.34.68,6.56,1.19,10.08.27,1.91,1.06,7.69.92,9.21-.1,1.02-1.23,1.5-1.76,2.22v.63c1.72.37,3.5,5.04,3.32,6.42-.58,1.97-3.09,5.67-3.47,7.34-.79,3.5,2.93,6.52-.27,8.98-.56.43-.61.64-1.45.56-4.35-.42-6.31-11.59-5.43-14.96.25-.96,2.01-1.37,2.05-3.25.03-1.98-2.9-5.04-2.98-6.96-.02-.43.27-2.69.4-3.09.37-1.19,2.05-1.37,2.15-3.17.03-.54-.43-3.75-.59-4.3-.33-1.11-1.53-2.08-1.64-3.69-.26-4.19,1.62-8.21-.98-12.64-.1-.16-2.49-2.58-2.66-2.66-1.33-.56-2.98-.14-4.42-.39-2.55-.45-5.13-2.04-5.62-4.74l-.91.28c-.98,1.02-2.59,5.16-3.34,5.4-1.99.65-3.21-2.08-2.56-3.89,1.2-3.33,5.84-8.04,7.7-11.26.09-.9-.04-.59-.66-.67-1.79-.24-3.66.26-5.48-.69-1.01-.53-2.86-2.65-1.75-3.67.37-.34,5.32.54,6.74.35,1.89-.25,3.55-1.72,5.54-1.73.59-.63-2.2-2.03-2.66-2.84-1.44-2.48,2.05-4.76,1.15-6.42-.3-.54-3.38-2.15-4.2-2.23.54-1.17-.18-2.6.06-3.6.21-.89,1.26-1.62,1.26-2.32,0-.84-1.04-1.14-1.25-1.84-.47-1.6.19-3.1-1.73-4.55-1.12-.85-2.61-.3-2.74-2.45-.18-3.03,3.69-5.93,6.59-5.03-.69-1.17-2.77-.84-3.73-1.77-1.33-1.28-2.29-6.77-1.03-7.84.56-.48,3.14.22,2.58-1.61-.06-.2-2.49-2.01-3.11-2.65-.77-.79-1.29-2.34-2.38-2.4-2.89.56-5.83.87-8.72,1.41-4.14.77-8.54.9-12.88,1.66-.48.08-5.35,1.8-5.85,2.06-.13.06-2.06,1.76-2.13,1.88-1.1,1.98,4.11,4.91,5.59,5.46,1.57.58,2.95.5,4.36.92,1.85.56,3.26,2.24,5.72,1.55-.17,4.68-4.77,3.17-7.69,3.06-.66-.02-1.39.44-2.17.41-1.88-.07-3.77-1.21-5.55-1.72-.05,1.02.21,2.1-.23,3.08-.13.3-4.09,4.71-4.37,4.88-2.48,1.42-4.84-1.17-6.66-2.67.77-3.28,3.47-6.11-.42-8.79-1.24,1.16-2.3,2.78-3.58,3.88-.89.77-2.64,1.24-3.2,2.1-.93,1.42-1.47,5.17-2.29,6.96-1.22,2.67-3.66,4.59-4.8,7.31,2.8.77,4.68-1.93,6.59-2.43,3.45-.91,6.84-1.89,10.28-2.94.92-.28.79-1.18,2.72-1.28,3.44-.17,3.53,1.64,4.93,3.91.48.77,1.68.8,1.39,2.43-.1.56-1.12,2.09-1.58,2.53-6.83,6.46-15.24,4.92-22.65,8.5-1.58.76-3.3,2.92-4.31,3.2-1.18.33-2.34-1.01-3.67-.64-2.19.6-1.41,4.31-1.68,5.84-.34,1.91-1.29,5-1.97,6.85-.37,1.01-1.36,1.35-1.54,2.88-.45,3.96,2.49,3.92,3.09,6.2,1.2,4.59-.14,9.5,0,14.1.19,6.16-.17,7-.82,12.81-.34,3.03.15,6.54-.52,9.62-.4,1.82-2.01,3.84-2.19,5.3-.22,1.82.67,4.98,1.11,6.86.4,1.66,2.33,3.9-.22,5.06-3.05,1.38-6.91-3.85-7.41-6.67-1.13-6.41.48-10.29,1.21-16.29.83-6.81.82-12.58.91-19.36.04-2.65.86-5.59.49-8.38-.25-1.87-2.81-5.55-3.42-7.59-.51-1.7,0-4.99-.62-5.76-.04-.05-.62.29-1.04-.03-1.04-.79-3.67-2.75-4.41-3.56-1.24-1.36-1.07-3.34-3.05-3.51-1.9,4.43-7.22,2.13-10.82,3.07-.34,1.45,1.26.68,2.31.99,2.84.84,1.85,3.54-.43,4.19-.42.12-6.26.56-6.9.52-1.61-.11-4.56-2.18-5.7-2.09-.68.05-5.14,2.07-5.08,2.68.14,1.51,4.28,7.61.95,8.6-3.07.91-5.07-4.92-7.03-6.48-3.3.1-6.86.68-5.76,4.9.49,1.89,2.1,1.82,2.93,2.8,2.52,3,3.96,11.91,3.52,15.77-.32,2.83-2.05,6.52-2,9.39.03,1.75,1.57,3.02,1.59,3.87.05,1.74-3.5,5.74-3.85,7.17-.32,1.26.33,2.18.16,3.22-.21,1.33-1.61,2.18-1.93,3.85-.35,1.86.43,4.22.36,6.01-.09,2.41-2.13,5.58-2.13,8.4,0,1.2.81,2.52.6,3.78-.77,4.63-5.86,2.32-6.83-1.6-1.18-4.8.41-9.79.85-14.51.18-1.99-.6-5.27-.37-6.5.31-1.67,3.31-5.32,3.73-8.11.47-3.17-.64-8.52-.27-12.25.48-4.78,2.18-6.05.44-11.47-.97-3.03-4.53-7.52-4.83-9.72-.57-4.23,4.02-9.1,2.97-12.65-.26-.87-1.88-2.28-2.1-3.66-.37-2.35,2.17-3.68-.05-6.09-.4-.43-1.51-1.26-2.16-.95-2.61,1.27-4.4,12-10.17,9.75-1.42-.99,1.78-9,2.93-10.34l3.26-3.56c-1.5.18-7.97,1.26-7.97-1.1s4.16-1.85,5.89-2.09c2.74-.39,3.95-1.99,6.48.98-.13-2.61-.08-4.76.85-7.2-1.75-1.67-3.93-3.32-4.21-5.86-.07-.61.42-1.32.22-2.04-.2-.76-1.39-1.15-1.61-1.95-.25-.87.16-2.12-.29-2.79-.16-.25-2.18-1.03-2.86-1.55-2.81-2.14-1.14-3.24-1.34-6.36-2.47.87-3.49,3.49-6.58,2.61.09-.62-.36-1.52-.3-1.98.09-.72,9.35-9.03,10.85-9.68.21-.87-5.87-6.17-6.39-7.27-1.54-3.32,2.88-1.58,4.26-.73,1.54.94,3.21,3.58,4.76,4.7.05-1.5,1.17-2.56.89-4.16-.25-1.46-1.86-1.52-1.78-4.41.07-2.5,1.74-2.72,1.81-3.55.17-1.93-3.12-3.48-.93-7.06.68-1.11,2.25-1.49,2.7-2.63-.06-2.49-5.61-4-6.19-7.52-.25-1.53-.24-5.36,1.61-5.86.99-.27,1.94.81,2.76-.72-2.54-2.47-6.71-6.32-3.89-10.07,1.44-1.91,4.56-1.77,3.07-5.7-2.2-1.98-4.28.88-6.21,1.67-2.7,1.09-6.63,1.44-8.36-1.32-.01-1.88,10.89-3.08,12.77-2.86-.14-1.28.26-2.89-.09-4.1-.83-2.84-5.21-7.78-6.25-10.49-.66-1.7-2.23-6.63.4-6.61,3.04.02,2.99,6.39,3.98,6.65,3.87-1.37,5.93-3.81,10.36-2.89.65.14,5.01,1.76,5.43,2.06.7.5,2.97,4.98,2.96,5.9,0,2.42-2.09,3.02-2.69,5.06,2.61-1.26,4.93,4.78,5.54,4.88.93.15,4.19-3.1,5.85-.63,1.02,3.1-2.97,6.31-4.52,9.01-1.05,1.82-1.59,3.39-2.46,5.25,1.16.8,11.36-3.76,10.58,1.97-.32,2.37-7.21,3.68-9.26,4.21-1,1.46,5.33,5.16,5.29,7.28-.02.98-2.08,1.82-2.87,1.79-1.48-.06-1.21-2.1-2.86-1.58.81,1.37-.29,2.15-.32,3.21-.04,1.52,1.17,2.91,1.24,4.06s-.67,2.23-.48,3.49c.15.97,1.27,1.86,1.55,2.88.65,2.37-.07,3.47-.98,5.54,2.03,1.1,2.03,3.55,1.62,5.71-.36,1.89-4.66,4.17-5.66,5.78-.63,1.01-.29,4.42.16,5.48.36.85,1.51.36,2.18,1.29.4.55,1.53,3.1,1.59,3.75.26,2.79-2.52,4.54-2.57,4.82-.07.44.79,2.38.78,3.54,0,1.49-.63,3.55-1.34,4.86,3.09,1.02,5.97,7.12,5.18,10.04-.46,1.69-5.22,5.77-2.97,7.59.34.27,1.1.26,1.55.65.49.42.67,1.3,1.08,1.56,1.88,1.17,6.92-1.75,9.08-1.96,1.46-.14,2.64.52,3.8.34s2.59-1.48,3.67-1.66c1.47-.25,2.94.52,3.83.33s4.32-2.51,5.74-3.08c3.37-1.36,6.81-2.85,7.57,1.85l2.35-1.39c-.6-5.33,1.53-7.76,6.86-7.42,1.2.08,6.52,1.73,6.86.21.19-.87-3.62-2.14-4.51-2.85-.78-.62-1.04-2.12-2.31-2.2-3.93.37-7.66,6.98-11.34,6.52-.64-.08-2.32-.74-2.4-1.45-.27-2.41,7.48-8.2,9.95-8.64l-.37-3c1.94-1.26,4.04-.54,5.94-1.34.25-6.65-.05-12.94,1.99-19.37,1-.2,3.94.05,4.3,1.12.06,4.96-.95,9.74.07,14.69h1.75c-1.22-7.12,3.54-6.67,8.36-9.03-1.35-1.12-1.63-3.19-1.3-4.84.38-1.92,3.05-3,3.62-4.3.75-1.71-.11-3.7.56-5.17,1.1-2.43,7.55-2.84,8.38-4.41s-1.9-2.79-2.65-3.98c-1.14-1.83-.93-3.88-.12-5.82,1.32-3.19,6.82-2.17,7.34-3.69.6-1.8-1.17-1.89-1.58-2.51-2.66-3.96-1.64-8,3.35-8.7-.78-4-.13-7.97,4.33-8.7.75-.12,2.75.55,2.73-.3,0-.16-1.7-1.48-2-2.4-.55-1.71-.78-6.35,1.12-7.3.89-.45,1.95-.12,2.88-.21.65-.06,1.27.36,1.1-.66-3.16-1.2-4-5.58-3.42-8.71.63-3.4,3.4-4.01,6.5-3.85-.55-2.72-2.4-3.36-1.55-6.62s3.2-1.73,4.66-3.27c.93-.98.49-2.56,2.18-3.11v-.65c-1.51-.89-2.72-2.13-4.26-3.02-15.24-8.75-31.84-14.89-39.36-32.89-.26-.62-.59-3.7-1.09-3.78-2.59-.17-3.41,2.43-4.77,3.83-6.87,7.12-14.28,14.6-22.79,19.72-5.2,3.12-15.07,7.32-20.79,8.65-3.46.81-7.83,2.82-11.64,3.85-16.53,4.5-34.11,7.19-51.45,6.74-.75-.02-1.29-.13-1.95-.47-.81,1.08,3.96,4.52,1.56,6.63-3.61,3.19-7.2-5.94-9.96-7.71-1.45-.94-3.07-.92-4.55-1.62-2.09-.99-4.05-2.23-6-3.47.37,1.92,1.51,3.71,2.79,5.13,2.8,3.1,6.04,3.7,8.31,7.77,1.72,3.07,1.81,8.29,3.66,12.2.39.81,1.56,1.19,1.87,2.54.88,3.87-.28,7.11-4.75,6.3,1.06,2.52,1.2,5.5-.59,7.78-2.54,3.23-6.1,4.33-9.07,6.56-1.36,1.02-2.44,2.68-3.78,3.71-6.59,5.06-12.75,7.92-19.37,13.67-1.27,1.11-3.96,1.64-3.74,3.96,4.17-.97,7.2.72,7.1,5.23.83,1.42,6.24-2.6,9.08-1.37.89.39,1.63,1.87,2.45,1.8,2-.68,3.55-2.67,5.58-3.25s4.58-.34,6.55-.94c4.24-1.29,8.33-6.35,13.73-5.44.27,2.08-.28,5.24-1.79,6.81-.44.46-9.05,5.64-9.66,5.79-1.71.4-3.29-.58-5.01-.66-1.15.31-.67,1.96-.04,2.6,1.12,1.14,8.23,1.75,10.23,2.3l.53,2.09c-1.95.83-4.2-.37-4.83,2.22,3.25-1.29,4.94,1.55,7.64,2.56,5.54-3.69,8.8-6.26,13.73.08,3.56,4.58-1.33,5.55-.64,10.34.08.57.96,3.57,1.19,4.09.96,2.21,3.44,2.15,2.21,6.41-1.23,4.28-5.41-1.06-6.94-.37-2.64,2.51-5.11,5.69-7.69,8.19-2.82,2.73-5.81,4.94-8.84,7.47-.87.72-1.58,1.67-2.42,2.43-.45,1.05,3.18,1.05,3.94,1.34.95.36,1.76,1.51,2.86,1.99,2.64,1.14,6.98.75,9.38,2.07,1.02.56,1.49,2.24.93,3.13-.64,1.03-7.39.95-8.85.38-1.66-.65-2.32-2.57-4.52-2.58s-5.24,3.6-8.15,2.7c-.49.43,4.02,6.18,4.48,7.19.92,2.04.74,4.07,1.8,6.14.82,1.6,2.82,2.46,1.24,4.99-2.61.73-3.44.16-5.1-1.57-1.92-2.01-3.3-5.76-4.42-8.37-.54-1.26.48-2.65-1.96-2.65.89,2.15-1.09,3.7-.44,6.17-2.09.01-3.99-.26-5.3-1.99-.37-.48-.3-1.46-.68-1.57-1.74-.5-2.84,1.58-4.59,1.57l-.39.5c1.35,4.93-2.71,4.08-5.79,5.64-1.36.69-8.52,5.62-9.24,6.61-.58.79-.53,2.04-.97,2.99-.9,1.93-7.34,5.96-9.61,7.57-.58.41-1.66.4-2.07.79-.99.96-.06,5.96-.57,7.99-.43,1.7-1.65,2.68-1.97,3.78-.77,2.6-.45,4.97-2.59,7.54-.91,1.09-6.69,4.22-6.86,5.14-.2,1.13.5,2.54.48,3.86-.12,6.02-2.85,11.04-3.9,16.41-.69,3.56-.71,8.52-1.63,12.03-.17.66-1.38,2.61-1.97,2.83-2.47.92-3.78-2.95-4-4.81-.24-2.04.17-10.59.44-12.81.51-4.25,4.08-9.26,2.53-13.97-.53-1.61-2.28-2.81-2-4.87.33-2.42,8.74-6.19,9.53-9.47.44-1.84-1.15-4.38-.79-6.46.3-1.73,1.82-3.34,3.55-3.6.26-2.14-1.19-3.5-.94-5.69.59-5.14,4.74-6.36,8.18-9.02.87-.67,1.54-1.69,2.45-2.4,2.21-1.7,6.49-3.51,7.56-6.1.38-.91.22-1.89.75-2.77.95-1.56,4.21-1.64,5.56-3.25,1.23-1.47.79-3.67,2.44-5.05,3.59-3,12.56-4.57,15.83-8.39.93-1.08.96-2.22,1.72-3.12s4.18-2.4,4.39-3.13c.16-1.32-1.32-1.76-1.64-3.12-1.66-7.08,6.26-4.32,7.54-8.57.47-1.57-.06-3.74,1.15-4.9.61-.59,4.16-1.86,5.37-2.68,2.99-2.01,1.22-2.11.49-4.6-.23-.8-.11-2.68-.53-2.95-1.85.19-4.1-2.03-5.18-2.34-.95-.27-6.41-1.02-7.35-.93-1.8.18-3.13,1.29-5.14.64-.19-.06-3.21-2-3.37-2.14-1.08-1-1.34-4.18-3.09-4.65-1.84-.5-4.71,2.39-6.61,2.91-1.33.36-4.49.71-5.73.21-.61-.25-5.7-4.43-6.04-4.98-.35-.57.03-2.66-.27-3.47-4.91-.26-7.64-3.87-10.81-7.05-3.5,1.52-.16,3.06.19,4.24,1.27,4.26-2.4,13.83-2.99,18.87-.22,1.9.97,5.87-1.82,5.72-2.41-.13-3.37-1.83-3.82-4.09-.24-1.22.2-8.78.33-10.46.05-.71,1.17-3.79.89-4.17-3.14,1.16-5.05,6.21-8.8,4.61-1.29-.55-3.05-3.49-1.8-4.87,2.94-2.88,9.08-6.14,9.18-10.67.06-2.49-4.88-5.62-5.52-8.78-.36-1.8-.32-9.71.59-11.11,1.09-1.68,7.25-2.61,9.31-3.46,1.77-.73,3.5-2.31,5.41-2.96,7.43-2.56,13.19.09,19.78-6.65.32-.33,2.37-3.05,2.46-3.28.23-.58-.18-1.17-.01-1.74.23-.8,1.01-1.36,1-2.34-.02-2.36-1.75-5.66-2.05-7.6-.52-3.24,1.55-9.39-1.62-11.16-1.56-.87-3.5-.04-4.82-1.35-1.82-1.8.29-3.34,2.28-3.53,4.38-.4,7.56,4.22,9.39,7.64l.9.27c.17-2.36,3.05-4,4.41-5.51.65-.73,1.13-1.8,1.77-2.51,1-1.12,4.26-3.25,3.43-4.68-.18-.31-4.9-3.77-5.1-4.13-.35-.61.04-2.5-.19-3.56-.67-3.1-7.24-6.43-8.38-9.24-1.47-3.6,2.38-10.65,6.41-8.28,2.17,1.28,1.64,5.67,2.61,7.63.63,1.29,1.99,1.26,2.11,2.51l.88-.22-2.21-5.94c3.37-1.53,4.08,2.32,5.88,4.25,2.18,2.33,6.05,5.28,8.86,6.78.53.28.83.61,1.55.43.51-.52-3.83-10.51-4.42-12.1-10.38-28.15-25.34-51.39-38.03-78.28-3.5-7.42-4.87-14.26-7.72-21.36-.68-1.68-3.81-5-2.91-7.22.12-.29,4.08-3.74,4.67-4.16,9.05-6.51,25.22-10.55,36.16-13.17,28.15-6.73,59.53-7.63,88.01-2.31,6.29,1.18,12.41,3.18,18.48,5.08.51-3.82-.69-9.42,0-13ZM434.5,16.03c-7.73-6.47-10.95,1.33-16.57,5.79.12,1.89,1.69-.76,2.51-1.01,1.21-.38,6.56-1.09,7.85-1,3.31.22,5.01,1.97,3.97,5.34-1.09,3.54-4.74,1.45-6.84,2.41l-6.15,4.83c6.34,6.82-2.65,10.05-3.9,2.53-.34-2.06.45-3.21-1.41-5.38-.1-.07-1.67,1.56-1.72,1.67-.67,1.63-.16,8.25.09,10.32.41,3.4,2.54,6.25,2.85,9.38.2,1.98-.29,7.76-.9,9.57-.83,2.49-3.54,3.22-4.31,4.5-1.43,2.36,1.13,7.15,1.68,9.84,2.08,10.14.39,17.14.98,26.78,1.1,18.07-.28,35.65,0,53.76.06,3.76.96,8.6.91,12.3-.04,2.82-1.5,6.34-1.54,8.83-.05,3.64,2.85,11.81,4.87,14.72,1.73,2.49,5.52,6.67,8.73,6.19,1-.15,1.67-.91,2.4-1.06.95-.19,1.91.29,3.34-.25,2.16-.82,1.67-2.36,2.48-4.13s4.07-7.84,4.27-9.4c.14-1.12-.58-2.76-.37-4.33.38-2.84.59-5.44.91-8.34.9-8.17,3.61-16.31.77-24.58-.32-.93-1.38-1.3-1.84-2.12-.39-.71-1.65-3.48-1.58-4.12s.73-1.11.87-1.81c.32-1.63-.05-3.28,1.33-4.84,1.14-.78,7.1-.03,8.14,1.14,1.18,1.32,1.64,4.79,2.36,6.45,2.94,6.74,9.07,12.26,13.65,18.04,1.76,2.22,2.64,3.49,4.42,5.09.24.22.7,2.31,1.39,3.22s1.63,1.19,2.19,1.79c3.87,4.18,7.59,8.95,11.73,12.93,4.22,4.05,10.47,10.28,16.05,12.14,2.04.68,9.6,2.3,11.67,2.45,1.64.12,3.42-.46,5.05-.68l2.12-3.89c-1.36-1.99-1.1-5.02-1.78-7.02-.3-.89-2.91-3.24-3.32-4.6-.28-.94.03-2.06-.39-3.11-.2-.5-2.28-1.8-2.98-2.77-4.95-6.9-9.52-14.49-14.06-21.62-3.54-5.55-3.3-6.75-9.14-10.69-3.28-2.21-3.96-1.96-7-5.33-4.16-4.63-8.53-9.79-13.21-14.11-1.42-1.31-3.77-2.44-5.14-3.9-.71-.76-4.21-6.06-4.52-6.8-.64-1.53-.37-9.61.62-10.64.59-.62,1.51-.67,1.97-1.14s.49-1.25.89-1.75c1.9-2.37,2.37-.98,4.58-1.55,2.78-.72,2.13-1.91,3.35-3.3,11.39-13.02,21.34-26.25,33.23-39.02,6.29-6.75,19.11-17.81,20.05-27.08.15-1.46-.35-2.82,0-4.18-1.8.23-1.84-.98-3.79-1.28-6.97-1.05-7.46.42-13.29,2.47-5.26,1.86-9.51,2.42-13.96,6.3-3.29,2.87-7.52,7.81-10.35,11.24-9.62,11.63-15.65,23.37-24.04,35.44-.95,1.37-2.73,2.82-3.65,4.28-1.58,2.52-1.06,5.46-5.58,4.56-.82-.16-3.72-4.33-3.73-5.1-.02-1.27,1.07-2.55,1.27-3.97.48-3.43.16-7.54.48-10.97.97-10.43,3.33-23.22.12-33.13-.47-1.45-1.44-4.06-1.99-5.54-1.46-3.9-3.87-8.04-7.09-10.74ZM364.97,66.46c.09-.11-.34-.71.07-1.01,6.79-4.95,14.14-1.09,21.19-3.52,1-.34,1.59-1.36,2.88-1.55,1.89-.27,4.59.66,7.01.42,3.2-.31,8.88-2.45,10.55-5.32.41-.71.82-4.71.69-5.45-.11-.65-2.52-4.72-3.13-5.26-1.81-1.6-3.45-1.11-5.04-2.01-1.69-.96-2.94-4.15-4.16-5.54-1.36-1.56-7.27-2.99-9.61-3.62-27.67-7.36-53.47,3.24-66.67,28.66-2.24,4.31-5.88,12.29-5.53,16.99.12,1.56,1,2.87,1.17,4.27,1.21,9.9,1.49,19.55,1.36,29.46-.11,8.19-1.67,14.42-2.19,22.07-.36,5.28.44,11.05-.04,16.28-.38,4.14-3.32,13.44-4.69,17.76-.76,2.39-3.35,5.95-2.68,8.16.15.5,2.87,3.58,3.47,4.03,2.08,1.58,6.98,3.86,9.49,5.04,7.51,3.55,12,4.27,19.66,6.33,1.28.34,2.31,1.42,3.66,1.63,3.02.47,7.35.25,10.54.47,17.85,1.25,31.41.4,43.84-13.87,2.57-2.94,2.89-6.4,4.72-9.72-2.89-2.23-5.1-4.63-8.91-5.07-6.25-.72-16.11.45-22.47,1.34-2.8.39-7.86,2.64-9.71,2.58-.95-.03-2.09-1.01-3.18-1.18-4.62-.71-9.57-1.11-14.22-2.49-3.77-1.12-13.04-6.42-15.6-9.08-2.34-2.43-3.25-3.81-4.91-6.98-2.25-4.31-2.51-7.04-3.89-11.55-.33-1.1-1.69-.58-1.12-3.25.38-1.77,2.04-1.51,2.88-2.41,1.36-1.46.83-4.94,1.13-6.8,2.05-12.62,5.05-21.91,13.6-31.78,5.47-6.32,9.28-14.71,16.4-19.72,2.52-1.77,5.14-3.94,7.6-5.62,1.07-.73,5.37-2.16,5.85-2.72ZM289.63,39.79c-.16-.22-3.52-2.93-3.8-3.02-1.25-.4-3.86-1.07-5.2-1.4-4.4-1.09-3.74,1.11-5.38,3.2-1.52,1.95-3.2.48-2.62,3.93,1.02,6.07,3.82,11.71,5.57,17.34,1.76,5.69.78,8.16,1.49,13.49.32,2.44,1.99,5.66,2.5,8.07,1.81,8.54,1.23,16.35,3.51,25.13,1.56,6-.1,9.09.23,14.09.06.87,1,2.92,1.14,4.37.57,5.72-1.5,10.29-2.14,15.81-.77,6.58.16,11.4-2.43,17.84-.73,1.83-1.98,4.18-3.86,4.95-1.29.53-6.78,1.43-8.2,1.42-1.8,0-2.28-1.07-3.61-1.7-16.26-7.66-23.25-27.73-29.63-43.44-3.86-9.5-8.42-19.97-11.08-29.96-2.32-8.72-3.77-17.82-6.52-26.52-2.52-7.96-9.94-21.35-18.35-23.94-.58-.18-2.86-.63-3.34-.6-.31.02-5.19,1.8-5.78,2.07-5.67,2.66-10.27,10.97-8.65,17.18.18.7,2.92,5.46,3.46,6.23,1.57,2.25,11.53,7.14,14.7,9.53,20.24,15.27,25.88,44.5,15.98,67.47-.87,2.01-4.12,6.65-4.41,8.4s1,3.28,1.22,4.76c.24,1.63-.33,3.33.36,4.93s4.51,7.92,5.64,9.78c5.41,8.84,23.42,19.23,32.75,23.64,10.9,5.15,19.27,3.14,29.25-2.52,5.95-3.37,13.18-7.67,16.1-14.28,3.05-6.92,8.81-23.28,8.88-30.36.03-3.25-.63-6.33-.46-9.74.54-10.67,2.58-21.04,2.67-32.13.02-2.36.18-7.21-.06-9.24-.53-4.55-3.82-10.8-4.71-15.1-.41-1.96.33-3.16.3-4.7-.13-5.24-2.37-7.57-4.55-11.72-.18-.34.24-.87.09-1.21-.05-.11-1.36-.7-1.58-1.77-.19-.96.42-1.66.28-2.43-.09-.45-3.02-7.28-3.5-8.41-1.32-3.11-2.76-2.6-3.77-3.94-.68-.89-1.71-4.43-2.47-5.46ZM192.6,163.65c15.77-16.19,26.88-32.95,22.69-56.74-1.57-8.91-5.77-17.79-12.49-24.07-2.44-2.28-15.77-10.84-18.61-11.34-6.42-1.14-3.93-1.25-8.47-3.36-20.01-9.26-56.86-9.14-78.62-6.88-11.39,1.18-19.42,2.97-30.27,5.85-3.94,1.05-8.26,2.46-12.24,2.52l.45.87c-1.08.08-4.64.61-5.31,1.09-.47.33-.29,1.33-.47,1.5-.15.14-2.78.12-4.01.62-.56.22-5.35,3.65-5.52,3.94-1.09,1.87,1.37,3.57,1.64,5,.58,3.08,0,6.11,1.02,10,.54,2.04,2.66,6.23,2.81,7.38.12.96-.66,1.28-.51,1.76.33,1.02,1.75,1.61,2.01,2.08,1.03,1.81,1.88,6.53,2.87,8.48,9.07,17.86,20.39,35.17,28.15,53.79.35.85.24,1.96.64,2.89.6,1.4,3.65,6.53,3.56,7.44-.05.55-.72,1.02-.73,1.35-.02.52,1.85,3.41,1.59,3.74-1.19.1-1.76.44-2.19,1.55.89,1.34,1.07-.21,1.73-.42.46-.15,1,.23,1.46.1,1.69-.47,3.55-3.28,6.27-3.03,1.93.18,2.81,1.84,3.84,2.37,2.78,1.42,8.86,1.38,12.02,1.21s6.07-2.13,8.53,1.14c.08.47-1.45,2.47-1.93,2.82-5.87,4.31-12.52,6.62-19.85,6.38-.95-.03-1.96-.92-3.04-.65-.96.24.06,2.73.29,2.97.3.31,2.15.51,2.75.56,4.23.35,10.73-.7,14.53-.02,1.15.21,1.3,1.42,2.44,1.32l-.88-1.31c2.03-.28,3.98-.95,6-1.27,29.58-4.59,56.12-9.32,77.84-31.62ZM402.82,69.31c-2.08-1.61-5.26-.41-7.62-.17-8.4.88-20.14,1.36-27.49,5.1-9.74,4.95-15.61,10.71-21.95,19.46-.51.7-.5,1.88-.95,2.49-4.57,6.23-10.99,12.51-13.1,20.47-.47,1.75-.27,4.52-.66,6.39-2.22,10.59-4.26,11.81-.88,23.15.83,2.8.09,3.67,2.98,5.83,1.77,1.33,4.12,1.62,5.67,2.7.73.51,1.17,1.64,1.47,1.71,2.33.54,4.82.73,7.22,1.57,1.73.61,6.03,3.15,7.24,3.26,1.27.12,4.22-.78,5.73-.89,7.51-.57,14.91-2.2,22.45-2.62,2.71-.15,9.18-.64,11.43-.44.94.08,1.64,1.15,2.47,1.5,1.39.6,4.56,1.21,5.69,1.82.38.21,1.72,2.28,2.65,2.4-.23-1.13.45-2.28.44-3.31-.02-3.3-.92-7.74-.92-11.01,0-1.77.91-3.91.95-5.73.22-9.67.1-19.42.39-29.1.07-2.24.94-5.31.94-7.47,0-1.85-.87-4.23-.94-6.15-.26-7.58,1.03-14.31-.54-21.93-.63-3.04-1.88-6.03-2.65-9.03ZM390.17,196.97c-2.94.85-5.36,2.98-8.34,3.77-9.09,2.41-22.99,2.37-32.39,1.51-8.02-.73-16.23-2.83-24.01-4.84l4.82,12.14,3.68-1.07c2.98,1.66,2.07,3,2.53,5.43.27,1.45,2.24,3.83,1.75,5.97,4.83-1.08,8.69-4.52,13.54-5.62,1.75-.4,6.77-1.14,4.98,1.9-1.5,2.55-8.57,4.63-10.59,7.47,1.48,1.56,11.85,6.07,12.27,7.11.17.43.04,1,.07,1.47-2.67.62-5.46.4-8.03-.55-1.17-.43-2.03-2.17-3.86-1.64.64,1.26,1.36,2.24,1.36,3.74,0,1.97-1.34,2.41-1.3,4.13,3.5,3.34,5.66-1.36,9.73.51.31.14,1.55,2.61,1.58,2.93.02.21-1.52,3.58-1.66,3.8-.61.93-2.42,1.84-3.7,3.69-.46.65-1.84.48-.95,2.35.06.13,1.74,2.16,1.86,2.24,1.53,1.01,3.21-1.7,4.11-2.42.73-.59,2.85-1.54,2.96-1.67.52-.63.5-3.43,2.32-4.95,1.61-1.35,4.86-.2,4.62-3.37-.19-2.47-2.65-1.68-.67-4.58,1.46-2.14,6.09-4.9,7.07-6.58.49-.84.32-1.67.67-2.41,1.54-3.34,3.9-1.5,5.26-2.67,1.11-.95,1.18-4.46,1.93-5.46.36-.49,2.43-.09,3.24-2.14.65-1.65.14-4.21,1.88-5.61,1.11-.89,2.33.1,3.28-1.16,1.18-1.55-1.73-3.56-1.77-5.22-.03-1.15,2.38-7.53,1.79-8.16ZM77.04,213.27c-1.84-1.84-1.58-4.78-4.82-4.83-1.25,4.17-6.92,8.63-7.83,12.67-.35,1.57.11,3.2-.14,4.71-.12.71-.74,1.22-.88,2.2-.17,1.15.15,2.57.03,3.77,5.58-1.45.83-7.64,3.75-11.45.78-1.02,2.05-1.12,2.87-1.98,1.95-2.06,2.74-6.23,7.03-5.09ZM256.11,237.69c-.49-.47-1.17-.7-1.59-1.28-.3-.42-1.84-4.63-2.63-3.75,1.25,2.61-1.58,5.66-3.97,6.17l.44,6.25-4.73,4.59.77,6.34c-2.95.1-6.12,1.83-6.19,5.09-.03,1.3.78,2.49.38,3.85-.45,1.52-3.59,2.37-3.88,4.28,4.13,1.26,7.26-.86,11.61-.38,3.43.38,2.34.89,3.99,2.18,1.42,1.11,3.8-.57,5.34-.89,1.04-.22,2.27.13,3.41-.12,1.28-.28,3.12-2.27,4.55-2.42,1.87-.2,4.36,1.34,6.33.3-2.31-6.2-8.61-10.26-9.05-17.16l-3.64-3.32c1.59-2.21,2.92-6.19.79-8.37-.36-.37-1.14-.61-1.93-1.36ZM128.13,292.15c.46.5,6.71-3.68,7.53-4.14,1.92-1.1,3.68-.48.62-3.32-.57,0-4.33,3.94-5.08,4.57-.63.54-4.06,1.8-3.06,2.89ZM281.39,341.94c1.26-2.49-.75-5.88-3.42-3.68-.83.68-.5,1.92-1.85,1.93l.22.88,3.47-.86,1.58,1.74Z"/>
  <path d="M457.55,194.79c.31,2.38-5.05,11.34-3.9,12.71l4.36.48c.38-.38-2.46-8.7,2.4-9.28,1.02-.12,2.84.42,3.35.23.55-.21,1.41-1.69,2.22-2.15,5.66-3.21,14.43,7.31,12.34,10.11-1.72,2.31-4.54.88-6.34,1.95-.63.37-1.51,2.48-2.28,3.12-.93.77-2.06.7-2.87,1.53,3.14,1.06,6.75-1.62,9.21,1.39.94,3.19-6.94,4.2-8.78,4.77-.79.24-1.46,1.18-2.14,1.32-.84.18-2.57-.39-3.82-.23-1.06.13-1.77.91-2.84.91l5.91,6.19c.93,1.78,3.78,4.87.37,5.61-5.17,1.12-8.67-9-15.99-6.76-2.8.86-1.46,2.78-1.01,4.5.08.33-.33.97-.29,1.01.43.4,2.75.18,2.61,2.9-.71,2.18-4.26,3.28-6.36,3.32-1.87.03-3.91-1.22-5.48.68-.67,2.17,5.6,4.25,2.88,7.26-.76.59-3.84.59-4.79.31-1.1-.32-1.9-2.44-3.19-2.57-1.18-.12-2.29,1.11-3.53,1.31-1.64.26-3.03-.2-4.6-.41.75,2.89-2.36,2.78-3.08,5.06.44.69,1.49.63,2.01,1.08,1.38,1.2.26,1.99,3.65,2.96s3.02-.26,5.12-.3c4.37-.09,3.3,2.75,5.35,5.25,3.01-1.58,5.06-1.33,7.91.51,1.32.18,1.74-1.19,2.61-1.78,2.37-1.6,5.47-3.82,8.03-4.75,3.03-1.1,7.34-2.79,8.87,1.09-.34,2.7-7.71,4.42-8.3,5.65-.37.76.53.69.89.85.66.3,1.9.89,2.52,1.03,1.69.37,7.34.08,7.63,2.53.33,2.73-4.03-.04-2.99,4.29.77,3.21,3.27,4.42,1.25,8.53-.76,1.54-2.1,1.25-2.72,2.13-.13.18-1.68,3.79-1.72,4.01-.59,2.98.88,5.72.91,8.37.02,1.75-.82,3.26-.26,5.09-4.2,1.78-6.64,12.4-10.56,4.38-2.47,1.3-2.04,3.96-5.29,3.96-6.61,0-1.04-8.76-1.73-9.7-1.64-1-7.21-.35-8.21,1.09-.45.64-.25,1.43-.53,1.89-.94,1.55-6.5,1.04-8.14,1.99-1.21,3.31.74,4.54-3.6,5.43-2.38.49-3.36.61-5.74,1.31-1.88.55-4.17-.23-4.02,2.63.16,3.03,4.4.89,6.38,1.11,3.24.36,6.28,3.74,4.67,7.04,1.47.36,8.05.92,8.72,1.86.1.14.78,3.17.74,3.47-.05.32-1.11,2.83-1.32,3.05-.57.59-4.41,1.2-2.41,2.86,1.11.92,3.03.09,4.07-.64,2.2-1.55,1.69-3.92,5.62-2.89.63.17,5.48,2.69,5.74,3.06.53.74.45,2.06.89,3.08.66,1.54,3.06,2.7,1.75,4.4-.32.41-1.02.12-1.38.55-.42.51-.72,2.13-1.29,2.8,1.68-.26,3.16,1.05,3.53,2.65,4.35-2.78,10.2-1.88,7.47,4.4,2.33.14,3.51,2.17,3.09,4.42,4.66-1.09,5.19,2.62,4.87,6.41-.15,1.76-1,2.45-.81,4.25.21,1.95,2.41,5.07,4.5,4.77,1.5-.21,6.21-7.15,6.64-8.81.57-2.2-.23-3.49-.27-5.52-.02-1.18.68-2.29.49-3.5-.32-2.01-3.49-1.41-2.56-5.66.65-2.95,4.59-1.3,5.43-2.97.58-1.14-.73-4.51-.69-5.96.02-1.12,1.58-5.15,2.43-5.94,2-1.89,4.1-.99,3.73-5.44l-.4-.51c-3.32-.29-5.05-2.92-3.88-6.05.99-2.68,3.06-2.11,3.38-2.59.24-.36-.09-2.31.35-3.37.31-.76,2.14-1.32,2.56-2.31.74-1.71-.33-4.04,2.49-5,.79-.27,6.84-.85,4.34-3.15-2-1.83-4.61-1.54-3.94-5.7.4-2.46,2.14-1.89,2.82-2.91.48-.72.5-2.81,1.33-3.52.99-.84,2.48-.04,3.1-.87l1.11-3.72c-.27-2.04-2.87-.85-2.24-4.9.33-2.11,1.94-1.63,1.8-2.6l-1.41-2.81c-2.07-.08-3.91.31-4.88-1.95-1.36-3.17,2.29-1.51,3.63-2.31.76-.46,1.32-2.56,1.9-3.17.66-.7,2.6-1.03,2.94-1.68.45-.86-1.31-.46-1.88-1.63-2.23-4.59,3.4-5.5,4.01-7.24.52-1.48-.54-2.99-.4-3.83.08-.51,1.62-.48,1.35-1.38-6.09-5.07,1.4-6.23,2.14-8.91.36-1.31-2.02-3.16-1.53-5.87.42-2.33,3.11-2.46,3.81-4.61.02-1.71-3.74-.29-3.96-3.55-.27-3.89,4.08-5.39,4.31-6.65-2.82-3.71-1.55-12.34,3.48-13.27,4.97-.92,8.18.63,6.28,6.06,3.14-.29,5.04,1.09,4.41,4.41,2.12-.7,3.49-.72,5.73-.44v2.2c1.94.29,2.04-1.52,3.86-1.67,1.67-.14,3.02.11,3.17,1.94.03.41.05,3.14.01,3.46-.12,1.11-2.14,1.86-.87,2.67.88.56,3.43-1.32,5.02-.19l1.84,4.79c1.84-.12,2.54-1.88,4.37-1.78,1.27.07,2.85,1.56,4.1,2.12,1.05.47,2.35.31,3.41,1,2.72,1.76.82,5.39,1.09,5.75l3.24-1.23c.87.63,2.16,1.52,1.99,2.67-.14.95-1.39,1.48-1.26,2.52.74.76,2.61-2.54,2.79-3.17.74-2.46-1.22-10.97,3.58-10.07,1.76.33,2.27,3.32,1.99,4.87,4.18.73,5.23-4.31,9.69-3.09-.03.81.09,1.64.02,2.45-.13,1.32-1.4,3.35-2.21,4.27-1.48,1.69-7.51,5.58-7.94,7.16-.3,1.08.39.44.65.47,4.34.6,3.8.84,6.14,3.99s4.61,7.28,6.61,10.79c2.43,4.25-.55,4.25-.53,6.27.01,1.2,1.3,2.13,1.7,3.13,1.6,4.04-2.17,3.3-3.89,6.26,1.37,6.16.57,12.03-.97,18.03-.77,2.98-1.64,6.7-2.7,9.55-.15.41-.78.21-.87.98-.23,1.79-.2,7.04.02,8.85.25,2.01,2.21,3.71,1.11,5.94-.73,1.49-4.19.84-4.95-.12-.21-.26-1.63-5.21-1.77-5.95-.74-3.94-1.39-9.58-.93-13.49.69-5.88,5.37-13.3,5.24-18.11-.14-4.96-2.68-4.89-6.41-6.85-1.28-.24-.67,2.05-1.38,2.69-2.62,2.39-7.59-.43-9.06,3.61-1.59,4.4,3.4,3.12,3.99,5.48.66,2.63-5.93,5.13-7.99,4.99l-3.01-4.8-5.21,1.29-.02,1.73,3.08-.25c2.7,1.67-1.58,5.52-3.12,6.6-1.75,1.23-8,3.33-7.89,5.72.04.97.86,1.94.89,3.13.02.65-.49,1.38-.47,1.73.03.37,1,.43,1.36.9.15.19.9,2.44.89,2.65-.09,1.34-5.08,2.18-3.65,6.27,1.83,5.21,5.55-1.18,7.02-1.57.62-.16,3.14.35,3.45.79,1.84,2.64-2.95,5.7-2.88,6.42l3.11,1.86-.04,4.22,3.44,2.16c-.07,2.19.61,6.52,3.64,5.91.84-.17,2.39-2.81,3.71-2.93,5.83,3.06-1.48,4.1-1.1,8.39,3.12,1.36,4.81-4.08,5.56-4.35,1.12-.4,3.69.17,4.26,1.39.62,1.26-1.04,3.94-2.33,4.51,1.94.25,3.17,1.15,3.29,3.24.15,2.54-3.78,3.61-2.19,6.23s7.74-2.86,9.46-3.32c2.12-.57,4.18-.23,5.33,1.76,1.54,2.67-4.01,6.87-3.12,7.72,2.34-.08,4.47,1.28,6.63,2.05.23.96-.77,4.77-1.25,5.76-.52,1.06-1.96,1.81-2.21,2.64-.5,1.69.33,4.35-.17,6-.27.89-3.79,2.96-3.89,4.97-.06,1.2,2.84,4,2.94,6.48.12,2.97-1.41,6.63-1.63,9.36-.57,7.05.16,14.42-1.39,21.49-.34,1.56-2.18,2.28-2.46,3.26-.44,1.53.32,3.57-.94,5.11-.57.69-1.67.49-1.81,1.04-.21.84.03,3.52.38,4.39.31.78.99.73,1.3,1.36,1.22,2.48.15,7.18.97,9.99-4.14,3.76-6.29-3.78-7.1-6.93-1.1-4.31-2.17-9.71.48-13.62.39-.58,3.36-2.77,3.41-3.17.1-.78-1.47-2.49-1.64-3.97-.43-3.6.66-5.84.92-8.84s-.9-7.12-.48-10.57c.38-3.13,2.66-7.72,1.11-11.22-.38-.86-1.87-1.17-1.99-1.64-.19-.79-.08-3.77.03-4.73.15-1.24,1.38-2.32.8-3.93-.42-1.17-3.7-1.5-4.68-1.94-3.2-1.43-2.19-5.41-3.17-6.08-1.9-.12-5.45-.49-6.11-2.71s1.05-2.21,2.22-3.23c1.09-.94,5.02-3.78,2.99-5.07-1.77-1.12-9.18,5.41-12.09,1.09-1.66-2.46.59-2.9.98-4.25.41-1.42-.18-3.03.17-4.46l3.01-1.18c-.95-3.71-5.95-2.91-4.89-7.66-2.49-.78-5.32.69-7.78-.33-.32-.14-2.11-2.41-2.74-3.02-.35-.34-2.81-2.69-3.08-2.42-1.4,5.24,1.53,9.57,1.78,14.74.1,2.07.53,5.94-2.44,5.93-5.12,0-3.79-8.36-4.66-11.64l.92-7.72c-3.26.35-4.77.07-5.58-3.31.08-.74,2.79-2.47,3.17-3.31.5-1.12-.44-2.17-.06-2.64.74-.91,5.77-2.25,5.52-3.67-.11-.65-8.68-8.26-9.69-8.84-.72-.42-5.69-3-6.11-3.13-1.94-.59-8.25.89-10.25,1.68-2.98,1.17-1.03,3.93-1.32,5.34-.12.59-1.13.85-1.2,1.79-.22,2.93,2.5.73,3.77.68,1.8-.08,2.86,2.07,2.3,3.67-.51,1.44-8.98,5.21-10.94,5.14-.87,2.65,5.12,4.39,4.65,6.65-.56,2.69-4.85,1.49-6.85,1.72-.12.86.2,1.99.01,2.78-.12.49-1.05.52-1.36.92-1.18,1.55.39,3.27-.04,4.79-.24.83-1.55,1.34-1.69,2.79-.11,1.22.75,2.4.38,3.65l-5.89,3.15c-.52.85.95,6.28,0,8.36-.29.64-1.5,1.29-1.97,1.99-1.63,2.42-3.04,5.18-4.92,7.42-.91,1.08-2.71,1.68-3,3.17-.39,2.01,2.21,8.25,2.96,10.68.48,1.58.65,4.4,1.2,5.85.98,2.62,5.97,10.93,8.27,12.21,1.31.73,3.7-.74,4.23,2.65.63,4.09-3.65,1.54-4.3,4.32-1.02,4.42,1.05,4,2.21,6.99.65,1.67,1.41,7.02-.47,7.97-2.46,1.14-4.66-1.63-5.68-3.58-.88-1.69-2.78-6.65-3.01-8.44-.73-5.55,1.34-5.72-2.16-11.5-2.61-4.31-4.91-6.45-6.8-11.7-.67-1.86-.31-4.22-1.96-5.52-.58,0-3.81,5.32-4.43,6.13-.87,1.12-4.23,4.3-4.51,5.18-.6,1.92.7,4.07.34,6.06-.17.9-.98,1.42-1.2,2.33-1,4.12-1.31,8.48-1.91,12.64-.86,5.95-6.57,2.37-7.35-1.38-.41-2,.73-9.86,1.33-12.12.33-1.25,1.53-2.51,1.65-3.68.17-1.7-1.38-2.76-.8-4.71l6.27-7.83c1.78-2.39,2.75-4.85,4.03-7.42.78-1.56,2.64-2.17,1.76-4.91-.13-.39-2.28-3.63-2.65-3.97-1.15-1.07-2.71-1.18-3.99-2.18-1.06-.82-2.45-3.42-3.28-3.72-.49-.18-1.23.27-1.88.11-.69-.17-3.36-.91-3.64-1.24-.98-1.15-.83-3.69-1.33-4.83-.25-.56-1.97-3.03-2.68-4.37-1.8-3.44-3.39-1.63-6-2.8s.66-3.79.1-4.29c-7.64-.76-1.45,3.33-1.74,6.83.01.4-.13.65-.45.89-2.96,2.15-7.2-3.8-8.63-5.95-7,2.79-7.64.97-4.16-5.08-.64-1.08-1.37-.09-2.41-.17-1.92-.14-3.77-2.91-4.16-4.7l-10.17.04c-.51-.35-.52-.69-.37-1.26.62-2.23,8.5-3.9,10.47-5.64.21-1.92-1.54-1.72-2.4-2.57-2.62-2.6-2.53-3.23-6.69-4.32-1.85-.49-3.18.68-4.3-1.84l-2.01,1.14c.54,1.46-.88,3.29-.83,4.35.04.76,1.21,2.55,1.26,4.03.12,4.21.06,7.2.45,11.41s-2.75,12.14-2.94,17.28c-.13,3.69,2.85,7.57-3.59,7.09-.27-1.46-.99-2.77-1.26-4.24-1.26-7.03,1.42-14.58.76-21.47-.17-1.74-1.08-2.81-1.29-4-.8-4.59-.09-11.08-.94-16.25-.17-1.04-1.23-2.12-1.09-3.58.15-1.61,4.85-4.61,4.2-5.48-.52-.04-1.03-.22-1.46-.52-3.36-2.32-7.99-6.46-8.23-10.74-.1-1.8.09-3.11,2.09-3.63,3.44-.89,8.08,4.57,11.72,4.72,1.14-.34.23-3.67,2.22-4.85,2.5-1.47,4.98.92,5.98.28.62-.4.81-2.22,1.75-2.67.83-.4,3.01-.14,3.44-.75.24-.35.24-1.84.63-2.67,1.3-2.75,5.01-1.31,7.52-1.65l2.07,2.21c-.71-6.91,1.29-9.36,8.09-6.2,1.02-.3.83-3.09,3.59-3.07,1.73.01,4.77,3.16,5.09.67.22-1.74-1.18-2.46.42-4.84,1.31-1.94,2.77-1.7,4.85-1.33-.03-1.97-1.76-1.57-2.87-2.41-2.16-1.64-2.81-4.21-6.14-3.99-1.22.08-2.01.77-3.33.71-4.24-.2-7.1-3.54-11.64-3.22-.72.05-1.8.22-2.44.55,1.38.9.56,2.5,1.1,3.74.87,1.97,4.57,3.4,4.18,6.61-3.75.21-6.65-1.26-9.46-3.52-.83.2-1.6,4.8-5.35,5.14-3.33.3-3.23-2.78-2.33-5.25.15-.4.7-.39.97-.9.78-1.48,4.96-8.29,3.84-9.57-2.62.68-3.51,4.87-6.44,5.15-.61.06-3.99-.27-4.69-.41-3.41-.69-4.32-4.6-3.39-7.5.15-.48.94-.55,1.25-1.04,2.38-3.77-.59-3.24-.85-5.67-.29-2.74,1.67-4.65,1.67-6.71,0-1.75-2.69-3.01-2.06-6.5.16-.87,1.13-1.71.88-2.87,1.68.32,3.46-.51,4.98-.44s4.17,1.65,4.83,1.64c2.65-.06,3.3-3.21,5.47-3.76,1.21-.31,3.89.18,4.45-.18.2-.13.65-2.2,2.12-2.97,1.06-.56,1.69-.07,2.68-.33,4.43-1.15,2.4-5.04,5.59-6.37,1.06-.44,2.96.36,4.21.04-.01-.75-.09-1.48.23-2.19,1.54-3.54,8.28-1.27,10.23-5.63,2.87-6.44,1.89-13.32,6.18-20.25.34-.55,3.74-4.61,4.05-4.76,1.14-.57,2.4-.07,3.52.25ZM527.59,230.46c-1.39-.11-3.7-.11-4.96-.55-1.47-.51-2.74-3.19-5.58-2.08-.68,1.68.38,2.63.45,4.13.11,2.39-.06,6.97-.48,9.28-.25,1.36-2.02,1.66-1.69,2.98.06.26,2.49,4.44,2.69,4.62,1.69,1.62,7.05,1.4,6.91,5.56-.11,3.27-2.24,2.04-4.4,2.68-2.32.68-4.84,1.9-7.26,2.43-.75.17-1.63-.04-2.4.02-.44,1.47.98,2.28,1.24,3.4.84,3.64-3.14,4.96-3.45,8.26.16,1.66,3.68,2.89,5.07,2.89,1.51,0,2.68-1.11,3.99-1.3,1.5-.22,2.93.41,3.89.29,1.16-.14,2.14-1.96,4.4-1.15.46,1.31,2.07,2.23,2.51,3.21.57,1.27.05,2.82,1.28,3.34-.24-.75,1.42-2.76,1.96-3.13.9-.62,1.55,0,2.32-.28,1.3-.47,1.64-2.06,2.35-2.51,1.5-.96,3.67-.5,4-3.7l3,.36c1.5-2.29.78-5.92,1.42-8.07.05-.16,2.24-2.35,2.38-2.44,3.32-2.05,5.61,2.75,6.57,5.22.91-.59.71-2.34,1.54-2.85,1.8-1.09,4.58.67,4.42-3.1-1.11-.98-1.71-2.65-2.64-3.53-1.42-1.34-4.31-1.22-3.47-3.86.31-.98,1.48-1.04,1.61-1.25.72-1.19-1.39-2.07-2.37-2.13-.87-.06-1.96.71-3.06.89-3.85.62-5.9-.82-4.61-4.85-3.36,1.03-4.59-1.49-6.63-2.4-.64-.28-5.71-2.31-6.03-2.37-1.3-.24-2.48.41-3.85.4-3.11-.03-5.02-1.26-4.65-4.59,1.44-.91,3.68-1.73,3.55-3.82ZM538.15,288.19c-3.23,1.39-5.68.92-8.57-.88-.84.17-.44,3.59-3.63,4.32-3.02.68-4.52-.89-6.93-.8-1,.04-8.16,1.19-8.16,2,.77.35,4.67,1.98,5.06,1.98.59,0,1.12-.77,1.79-.88,2.64-.44,3.7,4.47,6.79,3.54.03-.76-.13-1.59.09-2.34.72-2.37,9.54-4.34,12.1-5.54.74-.35,1.75-.25,1.46-1.38ZM531.99,304.93c-1.89-.7-3.88.73-5.52,1.74-.58.36-1.28.37-1.08,1.34l3.4-.78,3.21-2.29ZM423.65,341.06c2.32.19,1.94-6.13,1.31-6.61-2.33,1.15-.99,4.48-1.31,6.61Z"/>
  <path d="M175.42,111.32c15.15,20.25,3.64,36.56-15.45,47.23-6.22,3.47-18.62,9.44-25.44,9.8-3.49.18-8.08.09-10.83-2.42-.96-.88-4.18-5.18-3.44-6.35,2.78-1.66,3.52.48,5.21,1.07,4.16,1.46,7.87.02,11.67-1.15,12.2-3.74,28.9-11,35.83-22.32,8.15-13.3-4.74-26.86-15.18-33.99-11.39-7.77-21.86-13.11-36.06-12.43-7.33.35-16.89,2.65-23.4,5.67-2.64,1.22-7.12,3.29-7.11,6.47,0,.88,1.05,4.88,1.35,6.05,1.58,6.07,4.32,14.84,6.72,20.6,4.36,10.47,14.68,22.89,17.63,33.03.98,3.37,1.45,10.35-3.74,6.82-3.56-2.42-2.31-3.8-3.32-6.81-3.39-10.2-10.91-18.5-15.39-27.79-3.86-8.01-6.14-17.64-9.15-26.09-3.83-2.47-8.11-3.7-6.95-9.32.28-1.37,1.61-1.64,1.98-2.46.52-1.14-.52-.1.86-1.73,3.24-3.82,3.35-1.66,6.74-2.96.5-.19.53-.86.85-1.02,19.65-9.73,39.81-13.03,59.72-1.68,9.69,5.53,20.19,12.81,26.9,21.78Z"/>
  <path d="M204.85,93.33c.07.12,1.3.66,1.86,1.44.85,1.16,5.06,7.83,5.35,8.78.47,1.51-.07,5,.21,6.81.2,1.27,1.17,2.08,1.32,3.56.49,4.7-1.76,10.54-5.98,12.96-.43-.04-2.32-3.46-2.41-4.2-.16-1.43.58-2.79.46-4.36-.1-1.33-1.11-3.47-1.3-4.88-.53-3.99.08-8.01-1.13-12.1-.32-1.07-2.13-3.48-2.36-4.25-.47-1.6.43-3.5-1.95-4.68-.6-.3-1.64-.13-2.01-.39-.33-.23-.56-2.06-1.02-2.73-.52-.76-1.48-.95-2.1-1.87-1.23-1.85-1.73-4.63-.89-6.73,1.29-1.1,7.12,1.95,8.13,3.01.75.79.8,2.32,1.42,3.43.55.99,1.79,1.75,2.1,2.74.35,1.13-.05,2.87.29,3.46Z"/>
  <path d="M68.12,77.66c.74.78.35,2.69.93,3.67-1.11.67-3.13,3.31-4.21,3.63-1.37.4-3.62-.21-4.98.38-1.15.51-1.85,1.95-3.01,2.42,1.33,2.84,1.03,5.09,1.1,8.02l-2.1,4.65c-1.56.1-3.91-.12-5.06-1.28-.7-.7-.14-1.25-.42-1.73-1.49-2.62-2-4.75-3.19-6.95-.59-1.09-2.2-2-2.3-3.01-.08-.8,1.7-7.08,2.32-7.59.2-.16,4.38-1.31,5-1.43.84-.16,1.75.34,2.44.19,3.43-.7,10.72-3.89,13.48-.97Z"/>
  <path d="M90.96,74.75c-.23.32-1.92,2.47-2.05,2.57-.59.46-2.78.96-3.41.59-.88-.51-3.68-5.5-3.6-6.71.23-3.53,10.05-5.26,10.58-.48.24,2.15-.43,2.52-1.52,4.04Z"/>
  <path d="M485.95,169.45c2.45,2.26,5.19,5.22,7.49,7.71,1.09,1.18,1.86,1.16,2.26,3.38.54,2.99-1.77,3.58-4.35,3.1-3.28-.61-5.05-3.94-7.13-6.08-1.84-1.9-2.88-1.83-4.57-4.68-.99-1.67-2.34-3.38-1.5-5.32,1.84-4.24,5.87.12,7.8,1.89Z"/>
  <path d="M490.59,37.01c-.18-.8.74-.28.88-.44.28-.34-.8-.94-1.32-.44-1.33-3.91,4.09-11.81,7.41-6.75,1.49,2.28,1.03,3.87-.44,6.02-2.02,2.97-3.38,2.01-6.53,1.61Z"/>
  <path d="M199.33,45.52c1.43,2.03,5.86,3.89,4.81,6.94-.47,1.37-3.24,2.76-3.82,3.69-1.51,2.42-.09,5.38-4.64,5.97-1.59.21-3.45-.91-4.35-2.21-.21-.3-2.16-4.12-2.24-4.37-1.11-3.69.42-7.82,2.45-10.84,2.6-.36,5.27.07,7.78.81Z"/>
  <path d="M239.16,176.31c.22-.19,5.06.84,5.7,1.04,4.59,1.42,9.23,4.22,13.64,6.18,1.83.81,8.85,2.42,8.69,4.42-2.6,3.77-6.17,3.08-9.9,1.64-1.19-.46-2.42-1.56-3.69-2.04-5.44-2.06-11.59-3.1-15.61-7.77l1.17-3.47Z"/>
  <path d="M361.93,39.28c1.35,6.64-5.67,5.11-9.71,6.68-3.47,1.35-6.34,3.92-9.12,6.3-2.12,1.81-2.64,1.84-4.67,3.26-1.56,1.09-4.74,5.45-5.96,5.97-.95.41-1.84-.41-2.13-.21-.12.09-.3.95-.68,1.31-3.42,3.18-4.73-2.27-3.08-5.27,1.59-2.91,10.34-12.36,13.09-14.44.37-.28,1.19-.09,1.59-.37,1.44-1,3.5-3.5,5.14-3.71,1.24-.16,2.2.4,3.05.34,4.49-.3,7.99-2.38,12.49.15Z"/>
</svg>